<mxfile host="app.diagrams.net" modified="2024-03-14T07:53:53.215Z" agent="Mozilla/5.0 (Windows NT 10.0; Win64; x64) AppleWebKit/537.36 (KHTML, like Gecko) Chrome/122.0.0.0 Safari/537.36 Edg/122.0.0.0" etag="xiLXFhvzYqyzc2-N5nfi" version="24.0.2" type="device">
  <diagram id="C5RBs43oDa-KdzZeNtuy" name="Page-1">
    <mxGraphModel dx="1480" dy="1884" grid="1" gridSize="10" guides="1" tooltips="1" connect="1" arrows="1" fold="1" page="1" pageScale="1" pageWidth="827" pageHeight="1169" math="0" shadow="0">
      <root>
        <mxCell id="WIyWlLk6GJQsqaUBKTNV-0" />
        <mxCell id="WIyWlLk6GJQsqaUBKTNV-1" parent="WIyWlLk6GJQsqaUBKTNV-0" />
        <mxCell id="NgESMKOrmig5vyjbEju0-39" value="" style="group" vertex="1" connectable="0" parent="WIyWlLk6GJQsqaUBKTNV-1">
          <mxGeometry x="30" y="40" width="310" height="680" as="geometry" />
        </mxCell>
        <mxCell id="NgESMKOrmig5vyjbEju0-9" value="" style="rounded=0;whiteSpace=wrap;html=1;fillColor=none;container=0;" vertex="1" parent="NgESMKOrmig5vyjbEju0-39">
          <mxGeometry y="40" width="310" height="640" as="geometry" />
        </mxCell>
        <mxCell id="NgESMKOrmig5vyjbEju0-11" value="&lt;font style=&quot;font-size: 32px;&quot;&gt;&lt;b style=&quot;font-size: 32px;&quot;&gt;class Main()&lt;/b&gt;&lt;/font&gt;" style="text;html=1;align=left;verticalAlign=middle;whiteSpace=wrap;rounded=0;fontSize=32;container=0;" vertex="1" parent="NgESMKOrmig5vyjbEju0-39">
          <mxGeometry width="220" height="30" as="geometry" />
        </mxCell>
        <mxCell id="NgESMKOrmig5vyjbEju0-2" style="edgeStyle=none;curved=1;rounded=0;orthogonalLoop=1;jettySize=auto;html=1;entryX=0.5;entryY=0;entryDx=0;entryDy=0;fontSize=12;startSize=8;endSize=8;" edge="1" parent="NgESMKOrmig5vyjbEju0-39" source="NgESMKOrmig5vyjbEju0-0" target="NgESMKOrmig5vyjbEju0-1">
          <mxGeometry relative="1" as="geometry" />
        </mxCell>
        <mxCell id="NgESMKOrmig5vyjbEju0-0" value="Start" style="ellipse;whiteSpace=wrap;html=1;container=0;" vertex="1" parent="NgESMKOrmig5vyjbEju0-39">
          <mxGeometry x="90" y="70" width="120" height="80" as="geometry" />
        </mxCell>
        <mxCell id="NgESMKOrmig5vyjbEju0-4" style="edgeStyle=none;curved=1;rounded=0;orthogonalLoop=1;jettySize=auto;html=1;entryX=0.5;entryY=0;entryDx=0;entryDy=0;fontSize=12;startSize=8;endSize=8;" edge="1" parent="NgESMKOrmig5vyjbEju0-39" source="NgESMKOrmig5vyjbEju0-1" target="NgESMKOrmig5vyjbEju0-3">
          <mxGeometry relative="1" as="geometry" />
        </mxCell>
        <mxCell id="NgESMKOrmig5vyjbEju0-1" value="input N" style="shape=parallelogram;perimeter=parallelogramPerimeter;whiteSpace=wrap;html=1;fixedSize=1;container=0;" vertex="1" parent="NgESMKOrmig5vyjbEju0-39">
          <mxGeometry x="90" y="210" width="120" height="60" as="geometry" />
        </mxCell>
        <mxCell id="NgESMKOrmig5vyjbEju0-6" style="edgeStyle=none;curved=1;rounded=0;orthogonalLoop=1;jettySize=auto;html=1;entryX=0.5;entryY=0;entryDx=0;entryDy=0;fontSize=12;startSize=8;endSize=8;" edge="1" parent="NgESMKOrmig5vyjbEju0-39" source="NgESMKOrmig5vyjbEju0-3" target="NgESMKOrmig5vyjbEju0-5">
          <mxGeometry relative="1" as="geometry" />
        </mxCell>
        <mxCell id="NgESMKOrmig5vyjbEju0-3" value="hitungAkarKuadrat(N)" style="shape=process;whiteSpace=wrap;html=1;backgroundOutline=1;container=0;" vertex="1" parent="NgESMKOrmig5vyjbEju0-39">
          <mxGeometry x="70" y="340" width="160" height="60" as="geometry" />
        </mxCell>
        <mxCell id="NgESMKOrmig5vyjbEju0-8" style="edgeStyle=none;curved=1;rounded=0;orthogonalLoop=1;jettySize=auto;html=1;fontSize=12;startSize=8;endSize=8;" edge="1" parent="NgESMKOrmig5vyjbEju0-39" source="NgESMKOrmig5vyjbEju0-5" target="NgESMKOrmig5vyjbEju0-7">
          <mxGeometry relative="1" as="geometry" />
        </mxCell>
        <mxCell id="NgESMKOrmig5vyjbEju0-5" value="print akar kuadrat" style="shape=parallelogram;perimeter=parallelogramPerimeter;whiteSpace=wrap;html=1;fixedSize=1;container=0;" vertex="1" parent="NgESMKOrmig5vyjbEju0-39">
          <mxGeometry x="90" y="460" width="120" height="60" as="geometry" />
        </mxCell>
        <mxCell id="NgESMKOrmig5vyjbEju0-7" value="end" style="ellipse;whiteSpace=wrap;html=1;container=0;" vertex="1" parent="NgESMKOrmig5vyjbEju0-39">
          <mxGeometry x="90" y="560" width="120" height="80" as="geometry" />
        </mxCell>
        <mxCell id="NgESMKOrmig5vyjbEju0-40" value="" style="group" vertex="1" connectable="0" parent="WIyWlLk6GJQsqaUBKTNV-1">
          <mxGeometry x="354" y="40" width="466" height="680" as="geometry" />
        </mxCell>
        <mxCell id="NgESMKOrmig5vyjbEju0-15" style="edgeStyle=none;curved=1;rounded=0;orthogonalLoop=1;jettySize=auto;html=1;entryX=0.5;entryY=0;entryDx=0;entryDy=0;fontSize=12;startSize=8;endSize=8;" edge="1" parent="NgESMKOrmig5vyjbEju0-40" source="NgESMKOrmig5vyjbEju0-13" target="NgESMKOrmig5vyjbEju0-14">
          <mxGeometry relative="1" as="geometry" />
        </mxCell>
        <mxCell id="NgESMKOrmig5vyjbEju0-13" value="hitungAkarKuadrat(N)" style="ellipse;whiteSpace=wrap;html=1;" vertex="1" parent="NgESMKOrmig5vyjbEju0-40">
          <mxGeometry x="26" y="60" width="130" height="80" as="geometry" />
        </mxCell>
        <mxCell id="NgESMKOrmig5vyjbEju0-17" style="edgeStyle=none;curved=1;rounded=0;orthogonalLoop=1;jettySize=auto;html=1;entryX=0;entryY=0.5;entryDx=0;entryDy=0;fontSize=12;startSize=8;endSize=8;" edge="1" parent="NgESMKOrmig5vyjbEju0-40" source="NgESMKOrmig5vyjbEju0-14" target="NgESMKOrmig5vyjbEju0-16">
          <mxGeometry relative="1" as="geometry" />
        </mxCell>
        <mxCell id="NgESMKOrmig5vyjbEju0-18" value="Ya" style="edgeLabel;html=1;align=center;verticalAlign=middle;resizable=0;points=[];fontSize=12;" vertex="1" connectable="0" parent="NgESMKOrmig5vyjbEju0-17">
          <mxGeometry x="-0.2623" y="2" relative="1" as="geometry">
            <mxPoint as="offset" />
          </mxGeometry>
        </mxCell>
        <mxCell id="NgESMKOrmig5vyjbEju0-20" style="edgeStyle=none;curved=1;rounded=0;orthogonalLoop=1;jettySize=auto;html=1;entryX=0.5;entryY=0;entryDx=0;entryDy=0;fontSize=12;startSize=8;endSize=8;" edge="1" parent="NgESMKOrmig5vyjbEju0-40" source="NgESMKOrmig5vyjbEju0-14" target="NgESMKOrmig5vyjbEju0-19">
          <mxGeometry relative="1" as="geometry" />
        </mxCell>
        <mxCell id="NgESMKOrmig5vyjbEju0-14" value="N == 0 or N ==1" style="rhombus;whiteSpace=wrap;html=1;" vertex="1" parent="NgESMKOrmig5vyjbEju0-40">
          <mxGeometry x="51" y="180" width="80" height="80" as="geometry" />
        </mxCell>
        <mxCell id="NgESMKOrmig5vyjbEju0-16" value="return N" style="rounded=0;whiteSpace=wrap;html=1;" vertex="1" parent="NgESMKOrmig5vyjbEju0-40">
          <mxGeometry x="186" y="190" width="120" height="60" as="geometry" />
        </mxCell>
        <mxCell id="NgESMKOrmig5vyjbEju0-22" style="edgeStyle=none;curved=1;rounded=0;orthogonalLoop=1;jettySize=auto;html=1;entryX=0.5;entryY=0;entryDx=0;entryDy=0;fontSize=12;startSize=8;endSize=8;" edge="1" parent="NgESMKOrmig5vyjbEju0-40" source="NgESMKOrmig5vyjbEju0-19" target="NgESMKOrmig5vyjbEju0-21">
          <mxGeometry relative="1" as="geometry" />
        </mxCell>
        <mxCell id="NgESMKOrmig5vyjbEju0-19" value="P = (N / 2) +1" style="rounded=0;whiteSpace=wrap;html=1;" vertex="1" parent="NgESMKOrmig5vyjbEju0-40">
          <mxGeometry x="31" y="320" width="120" height="60" as="geometry" />
        </mxCell>
        <mxCell id="NgESMKOrmig5vyjbEju0-24" style="edgeStyle=none;curved=1;rounded=0;orthogonalLoop=1;jettySize=auto;html=1;fontSize=12;startSize=8;endSize=8;" edge="1" parent="NgESMKOrmig5vyjbEju0-40" source="NgESMKOrmig5vyjbEju0-21" target="NgESMKOrmig5vyjbEju0-23">
          <mxGeometry relative="1" as="geometry" />
        </mxCell>
        <mxCell id="NgESMKOrmig5vyjbEju0-25" value="Ya" style="edgeLabel;html=1;align=center;verticalAlign=middle;resizable=0;points=[];fontSize=12;" vertex="1" connectable="0" parent="NgESMKOrmig5vyjbEju0-24">
          <mxGeometry x="-0.4114" y="2" relative="1" as="geometry">
            <mxPoint as="offset" />
          </mxGeometry>
        </mxCell>
        <mxCell id="NgESMKOrmig5vyjbEju0-27" value="" style="edgeStyle=none;curved=1;rounded=0;orthogonalLoop=1;jettySize=auto;html=1;fontSize=12;startSize=8;endSize=8;" edge="1" parent="NgESMKOrmig5vyjbEju0-40" source="NgESMKOrmig5vyjbEju0-21" target="NgESMKOrmig5vyjbEju0-26">
          <mxGeometry relative="1" as="geometry" />
        </mxCell>
        <mxCell id="NgESMKOrmig5vyjbEju0-28" value="Tidak" style="edgeLabel;html=1;align=center;verticalAlign=middle;resizable=0;points=[];fontSize=12;" vertex="1" connectable="0" parent="NgESMKOrmig5vyjbEju0-27">
          <mxGeometry x="0.1188" y="-3" relative="1" as="geometry">
            <mxPoint x="-8" as="offset" />
          </mxGeometry>
        </mxCell>
        <mxCell id="NgESMKOrmig5vyjbEju0-21" value="P * P == N" style="rhombus;whiteSpace=wrap;html=1;" vertex="1" parent="NgESMKOrmig5vyjbEju0-40">
          <mxGeometry x="51" y="420" width="80" height="80" as="geometry" />
        </mxCell>
        <mxCell id="NgESMKOrmig5vyjbEju0-23" value="return P" style="rounded=0;whiteSpace=wrap;html=1;" vertex="1" parent="NgESMKOrmig5vyjbEju0-40">
          <mxGeometry x="31" y="550" width="120" height="60" as="geometry" />
        </mxCell>
        <mxCell id="NgESMKOrmig5vyjbEju0-30" value="" style="edgeStyle=none;curved=1;rounded=0;orthogonalLoop=1;jettySize=auto;html=1;fontSize=12;startSize=8;endSize=8;" edge="1" parent="NgESMKOrmig5vyjbEju0-40" source="NgESMKOrmig5vyjbEju0-26" target="NgESMKOrmig5vyjbEju0-29">
          <mxGeometry relative="1" as="geometry" />
        </mxCell>
        <mxCell id="NgESMKOrmig5vyjbEju0-31" value="Ya" style="edgeLabel;html=1;align=center;verticalAlign=middle;resizable=0;points=[];fontSize=12;" vertex="1" connectable="0" parent="NgESMKOrmig5vyjbEju0-30">
          <mxGeometry x="-0.2752" relative="1" as="geometry">
            <mxPoint as="offset" />
          </mxGeometry>
        </mxCell>
        <mxCell id="NgESMKOrmig5vyjbEju0-35" value="" style="edgeStyle=none;curved=1;rounded=0;orthogonalLoop=1;jettySize=auto;html=1;fontSize=12;startSize=8;endSize=8;" edge="1" parent="NgESMKOrmig5vyjbEju0-40" source="NgESMKOrmig5vyjbEju0-26" target="NgESMKOrmig5vyjbEju0-34">
          <mxGeometry relative="1" as="geometry" />
        </mxCell>
        <mxCell id="NgESMKOrmig5vyjbEju0-36" value="Tidak" style="edgeLabel;html=1;align=center;verticalAlign=middle;resizable=0;points=[];fontSize=12;" vertex="1" connectable="0" parent="NgESMKOrmig5vyjbEju0-35">
          <mxGeometry x="-0.52" relative="1" as="geometry">
            <mxPoint x="7" as="offset" />
          </mxGeometry>
        </mxCell>
        <mxCell id="NgESMKOrmig5vyjbEju0-26" value="P * P &amp;gt; N" style="rhombus;whiteSpace=wrap;html=1;" vertex="1" parent="NgESMKOrmig5vyjbEju0-40">
          <mxGeometry x="186" y="420" width="80" height="80" as="geometry" />
        </mxCell>
        <mxCell id="NgESMKOrmig5vyjbEju0-29" value="return hitungAkarKuadrat(N-P)" style="whiteSpace=wrap;html=1;" vertex="1" parent="NgESMKOrmig5vyjbEju0-40">
          <mxGeometry x="166" y="550" width="120" height="60" as="geometry" />
        </mxCell>
        <mxCell id="NgESMKOrmig5vyjbEju0-34" value="return hitungAkarKuadrat((int) P)" style="whiteSpace=wrap;html=1;" vertex="1" parent="NgESMKOrmig5vyjbEju0-40">
          <mxGeometry x="316" y="430" width="140" height="60" as="geometry" />
        </mxCell>
        <mxCell id="NgESMKOrmig5vyjbEju0-37" value="" style="rounded=0;whiteSpace=wrap;html=1;fillColor=none;" vertex="1" parent="NgESMKOrmig5vyjbEju0-40">
          <mxGeometry y="40" width="466" height="640" as="geometry" />
        </mxCell>
        <mxCell id="NgESMKOrmig5vyjbEju0-38" value="&lt;font style=&quot;font-size: 32px;&quot;&gt;&lt;b style=&quot;font-size: 32px;&quot;&gt;class hitungAkarKuadrat(N)&lt;/b&gt;&lt;/font&gt;" style="text;html=1;align=left;verticalAlign=middle;whiteSpace=wrap;rounded=0;fontSize=32;container=0;" vertex="1" parent="NgESMKOrmig5vyjbEju0-40">
          <mxGeometry width="446" height="30" as="geometry" />
        </mxCell>
      </root>
    </mxGraphModel>
  </diagram>
</mxfile>
